<?xml version="1.0" standalone="no"?>
<!DOCTYPE svg PUBLIC "-//W3C//DTD SVG 20010904//EN"
 "http://www.w3.org/TR/2001/REC-SVG-20010904/DTD/svg10.dtd">
<svg version="1.0" xmlns="http://www.w3.org/2000/svg"
 width="567.000000pt" height="567.000000pt" viewBox="0 0 567.000000 567.000000"
 preserveAspectRatio="xMidYMid meet">
<metadata>
Created by potrace 1.11, written by Peter Selinger 2001-2013
</metadata>
<g transform="translate(0.000000,567.000000) scale(0.100000,-0.100000)"
fill="#000000" stroke="none">
<path d="M2829 5327 c-96 -153 -303 -503 -300 -506 1 -2 -2 -7 -7 -10 -8 -5
-217 -350 -568 -936 -47 -77 -88 -147 -94 -155 -78 -127 -140 -233 -140 -241
0 -5 -4 -9 -9 -9 -5 0 -14 -15 -22 -32 -7 -18 -16 -35 -20 -38 -12 -9 -118
-190 -111 -190 4 0 2 -4 -4 -8 -13 -8 -274 -439 -274 -452 0 -4 -6 -10 -12
-13 -9 -3 -6 -7 6 -12 17 -7 180 -102 216 -125 8 -6 22 -13 30 -17 8 -4 17 -9
20 -12 3 -3 16 -12 30 -20 98 -56 149 -86 172 -100 106 -64 172 -101 180 -101
5 0 6 -4 3 -10 -3 -5 -2 -10 4 -10 14 0 51 -17 86 -40 17 -10 51 -31 78 -46
26 -15 47 -30 47 -34 0 -4 6 -7 13 -7 6 0 54 -26 105 -57 51 -31 96 -56 100
-56 4 0 19 -10 32 -22 14 -13 32 -24 40 -26 8 -2 20 -8 25 -15 6 -7 16 -13 23
-15 13 -2 93 -50 102 -61 3 -3 10 -7 15 -8 6 -1 41 -20 78 -42 36 -23 71 -41
75 -41 5 0 17 -9 27 -20 9 -10 20 -18 24 -17 3 1 18 -7 33 -17 l27 -18 221
131 c121 72 223 131 226 131 3 0 10 5 17 10 7 6 80 50 162 99 83 48 249 146
370 218 409 243 548 323 556 323 5 0 9 5 9 10 0 6 7 10 15 10 24 0 18 17 -42
118 -32 54 -60 102 -63 107 -3 6 -22 36 -42 68 -21 31 -38 59 -38 61 0 3 -23
41 -50 85 -28 45 -47 81 -43 81 5 0 4 4 -2 8 -17 12 -57 73 -59 90 -2 9 -8 18
-14 20 -7 2 -12 9 -12 15 0 6 -6 18 -14 26 -8 9 -16 22 -18 30 -2 8 -10 22
-18 31 -15 17 -53 83 -51 88 1 1 -5 10 -14 18 -8 9 -13 20 -10 25 4 5 2 9 -3
9 -10 0 -24 22 -107 165 -6 11 -22 38 -36 60 -13 22 -23 43 -21 48 1 4 -2 7
-7 7 -5 0 -13 9 -16 20 -3 11 -13 26 -20 34 -8 8 -16 20 -17 27 -2 7 -9 20
-16 28 -7 9 -12 19 -12 24 0 4 -9 16 -20 27 -12 12 -18 25 -15 30 3 4 1 10 -5
12 -10 3 -383 618 -374 618 2 0 -5 10 -16 23 -12 12 -28 36 -36 52 -13 30 -22
44 -57 97 -10 16 -16 28 -13 28 3 0 -2 9 -12 20 -9 11 -26 36 -37 55 -35 60
-204 339 -222 368 -10 15 -20 27 -23 27 -3 0 -17 -19 -31 -43z"/>
<path d="M4400 2480 c-24 -16 -46 -27 -48 -25 -2 2 -13 -5 -25 -15 -11 -11
-24 -17 -29 -14 -4 3 -8 1 -8 -4 0 -5 -12 -15 -27 -23 -16 -8 -47 -26 -69 -41
-23 -16 -45 -28 -49 -28 -4 0 -20 -9 -36 -21 -16 -11 -29 -18 -29 -14 0 3 -9
-2 -19 -12 -11 -10 -37 -27 -58 -38 -21 -11 -40 -22 -43 -26 -7 -7 -39 -19
-46 -16 -3 1 -10 -6 -15 -15 -6 -10 -20 -18 -31 -18 -12 0 -18 -3 -15 -7 4 -4
-7 -14 -25 -22 -18 -9 -52 -28 -75 -43 -23 -15 -48 -29 -54 -30 -7 -2 -20 -9
-28 -16 -9 -7 -18 -11 -21 -10 -3 2 -15 -6 -27 -17 -12 -11 -39 -29 -60 -40
-21 -10 -49 -27 -62 -37 -13 -10 -27 -15 -32 -12 -5 3 -9 1 -9 -5 0 -10 -81
-57 -89 -52 -2 2 -7 -1 -10 -6 -8 -12 -87 -62 -102 -65 -7 -2 -21 -10 -31 -18
-10 -8 -22 -15 -26 -14 -4 0 -15 -7 -24 -15 -9 -9 -34 -25 -55 -36 -21 -10
-50 -28 -65 -38 -16 -10 -28 -16 -28 -12 0 3 -10 -3 -22 -14 -11 -11 -25 -18
-30 -15 -4 3 -8 1 -8 -3 0 -5 -25 -23 -55 -41 l-54 -33 -192 113 c-105 62
-212 125 -238 140 -25 16 -57 33 -71 40 -14 7 -27 15 -30 18 -3 3 -77 48 -165
99 -88 52 -230 135 -315 186 -343 203 -496 293 -520 305 -14 7 -28 18 -32 24
-6 8 -8 8 -8 0 0 -6 23 -44 51 -85 28 -41 62 -91 76 -111 14 -21 30 -38 34
-38 5 0 9 -5 9 -12 0 -6 11 -26 25 -44 14 -18 25 -35 25 -38 0 -3 8 -14 18
-25 9 -10 40 -51 67 -91 28 -40 55 -78 60 -85 6 -6 15 -18 20 -28 14 -24 417
-591 424 -597 3 -3 11 -12 16 -22 6 -9 51 -73 100 -143 127 -178 223 -314 305
-430 189 -270 336 -469 349 -473 8 -3 11 0 8 5 -4 6 1 19 11 29 9 11 34 45 56
77 21 31 43 57 48 57 5 0 7 4 4 8 -3 5 8 23 23 40 16 17 27 32 25 34 -2 2 9
18 25 35 16 18 27 33 25 35 -2 2 9 18 25 35 15 17 31 38 34 46 8 22 136 200
154 214 8 6 13 13 11 15 -4 4 121 185 150 215 12 13 22 28 22 32 0 4 11 20 25
35 13 14 25 29 25 31 0 6 32 58 40 65 4 3 22 28 40 55 19 28 37 52 42 53 4 2
8 10 8 17 0 8 9 20 20 28 11 8 18 16 15 18 -2 3 8 19 24 36 16 18 27 34 25 36
-3 2 8 18 24 35 16 17 28 33 26 35 -2 2 10 18 26 35 16 18 27 32 24 32 -3 0 9
20 27 45 18 25 36 45 41 45 4 0 7 3 6 8 -3 8 22 45 127 192 41 58 98 138 126
178 28 39 56 72 61 72 5 0 7 4 4 8 -3 5 8 23 24 40 16 18 27 32 24 32 -3 0 9
20 27 45 18 25 36 45 41 45 5 0 6 5 3 10 -3 6 -1 10 4 10 6 0 11 6 11 13 0 7
8 22 18 33 17 19 55 75 50 73 -2 0 -23 -13 -48 -29z"/>
</g>
</svg>
